{
    "asset" : {
        "generator" : "Khronos glTF Blender I/O v0.9.36",
        "version" : "2.0"
    },
    "scene" : 0,
    "scenes" : [
        {
            "name" : "Scene",
            "nodes" : [
                0,
                1,
                2
            ]
        }
    ],
    "nodes" : [
        {
            "mesh" : 0,
            "name" : "Cube.031",
            "scale" : [
                1,
                1,
                0.10000000149011612
            ]
        },
        {
            "mesh" : 1,
            "name" : "Cube.032",
            "scale" : [
                0.8250856399536133,
                0.8250856399536133,
                0.01662304624915123
            ]
        },
        {
            "mesh" : 2,
            "name" : "BM_collider",
            "scale" : [
                1,
                1,
                0.18977417051792145
            ]
        }
    ],
    "materials" : [
        {
            "doubleSided" : true,
            "name" : "Material.020",
            "pbrMetallicRoughness" : {
                "baseColorFactor" : [
                    0.8631572127342224,
                    0.8399166464805603,
                    0.6953132152557373,
                    1
                ],
                "metallicFactor" : 0.649350643157959,
                "roughnessFactor" : 0.5103896260261536
            }
        },
        {
            "alphaMode" : "BLEND",
            "doubleSided" : true,
            "name" : "Material",
            "pbrMetallicRoughness" : {
                "baseColorFactor" : [
                    0.49321094155311584,
                    0.4618690609931946,
                    0.43352630734443665,
                    0.31735795736312866
                ],
                "metallicFactor" : 0.45454540848731995,
                "roughnessFactor" : 0.05194804444909096
            }
        }
    ],
    "meshes" : [
        {
            "name" : "Cube.031",
            "primitives" : [
                {
                    "attributes" : {
                        "POSITION" : 0,
                        "NORMAL" : 1,
                        "TEXCOORD_0" : 2
                    },
                    "indices" : 3,
                    "material" : 0
                }
            ]
        },
        {
            "name" : "Cube.032",
            "primitives" : [
                {
                    "attributes" : {
                        "POSITION" : 4,
                        "NORMAL" : 5,
                        "TEXCOORD_0" : 6
                    },
                    "indices" : 7,
                    "material" : 1
                }
            ]
        },
        {
            "name" : "Cube.034",
            "primitives" : [
                {
                    "attributes" : {
                        "POSITION" : 8,
                        "NORMAL" : 9,
                        "TEXCOORD_0" : 10
                    },
                    "indices" : 7
                }
            ]
        }
    ],
    "accessors" : [
        {
            "bufferView" : 0,
            "componentType" : 5126,
            "count" : 952,
            "max" : [
                1.0000001192092896,
                1.0000001192092896,
                1.0000004768371582
            ],
            "min" : [
                -1,
                -1.0000001192092896,
                -1.0000009536743164
            ],
            "type" : "VEC3"
        },
        {
            "bufferView" : 1,
            "componentType" : 5126,
            "count" : 952,
            "type" : "VEC3"
        },
        {
            "bufferView" : 2,
            "componentType" : 5126,
            "count" : 952,
            "type" : "VEC2"
        },
        {
            "bufferView" : 3,
            "componentType" : 5123,
            "count" : 1620,
            "type" : "SCALAR"
        },
        {
            "bufferView" : 4,
            "componentType" : 5126,
            "count" : 24,
            "max" : [
                1,
                1,
                1
            ],
            "min" : [
                -1,
                -1,
                -1
            ],
            "type" : "VEC3"
        },
        {
            "bufferView" : 5,
            "componentType" : 5126,
            "count" : 24,
            "type" : "VEC3"
        },
        {
            "bufferView" : 6,
            "componentType" : 5126,
            "count" : 24,
            "type" : "VEC2"
        },
        {
            "bufferView" : 7,
            "componentType" : 5123,
            "count" : 36,
            "type" : "SCALAR"
        },
        {
            "bufferView" : 8,
            "componentType" : 5126,
            "count" : 24,
            "max" : [
                1,
                1,
                1
            ],
            "min" : [
                -1,
                -1,
                -1
            ],
            "type" : "VEC3"
        },
        {
            "bufferView" : 9,
            "componentType" : 5126,
            "count" : 24,
            "type" : "VEC3"
        },
        {
            "bufferView" : 10,
            "componentType" : 5126,
            "count" : 24,
            "type" : "VEC2"
        }
    ],
    "bufferViews" : [
        {
            "buffer" : 0,
            "byteLength" : 11424,
            "byteOffset" : 0
        },
        {
            "buffer" : 0,
            "byteLength" : 11424,
            "byteOffset" : 11424
        },
        {
            "buffer" : 0,
            "byteLength" : 7616,
            "byteOffset" : 22848
        },
        {
            "buffer" : 0,
            "byteLength" : 3240,
            "byteOffset" : 30464
        },
        {
            "buffer" : 0,
            "byteLength" : 288,
            "byteOffset" : 33704
        },
        {
            "buffer" : 0,
            "byteLength" : 288,
            "byteOffset" : 33992
        },
        {
            "buffer" : 0,
            "byteLength" : 192,
            "byteOffset" : 34280
        },
        {
            "buffer" : 0,
            "byteLength" : 72,
            "byteOffset" : 34472
        },
        {
            "buffer" : 0,
            "byteLength" : 288,
            "byteOffset" : 34544
        },
        {
            "buffer" : 0,
            "byteLength" : 288,
            "byteOffset" : 34832
        },
        {
            "buffer" : 0,
            "byteLength" : 192,
            "byteOffset" : 35120
        }
    ],
    "buffers" : [
        {
            "byteLength" : 35312,
            "uri" : "data:application/octet-stream;base64,"
        }
    ]
}
