{
    "asset" : {
        "generator" : "Khronos glTF Blender I/O v0.9.36",
        "version" : "2.0"
    },
    "scene" : 0,
    "scenes" : [
        {
            "name" : "Scene",
            "nodes" : [
                0,
                1,
                2
            ]
        }
    ],
    "nodes" : [
        {
            "mesh" : 0,
            "name" : "Cone.001",
            "rotation" : [
                -0.7071067690849304,
                0,
                0,
                0.7071067690849304
            ],
            "scale" : [
                0.10724732279777527,
                0.10724732279777527,
                0.10724732279777527
            ],
            "translation" : [
                0,
                0,
                -1.25
            ]
        },
        {
            "mesh" : 1,
            "name" : "Cube.037",
            "scale" : [
                1,
                1,
                0.10000000149011612
            ]
        },
        {
            "mesh" : 2,
            "name" : "Cube.038",
            "scale" : [
                0.8250856399536133,
                0.8250856399536133,
                0.01662304624915123
            ]
        }
    ],
    "materials" : [
        {
            "alphaMode" : "BLEND",
            "doubleSided" : true,
            "name" : "Material.013",
            "pbrMetallicRoughness" : {
                "baseColorFactor" : [
                    0.8631572127342224,
                    0.8399166464805603,
                    0.6953132152557373,
                    0.6541354060173035
                ],
                "metallicFactor" : 0.649350643157959,
                "roughnessFactor" : 0.5103896260261536
            }
        },
        {
            "alphaMode" : "BLEND",
            "doubleSided" : true,
            "name" : "Material",
            "pbrMetallicRoughness" : {
                "baseColorFactor" : [
                    0.49321094155311584,
                    0.4618690609931946,
                    0.43352630734443665,
                    0.31735795736312866
                ],
                "metallicFactor" : 0.45454540848731995,
                "roughnessFactor" : 0.05194804444909096
            }
        }
    ],
    "meshes" : [
        {
            "name" : "Cone.001",
            "primitives" : [
                {
                    "attributes" : {
                        "POSITION" : 0,
                        "NORMAL" : 1,
                        "TEXCOORD_0" : 2
                    },
                    "indices" : 3,
                    "material" : 0
                }
            ]
        },
        {
            "name" : "Cube.038",
            "primitives" : [
                {
                    "attributes" : {
                        "POSITION" : 4,
                        "NORMAL" : 5,
                        "TEXCOORD_0" : 6
                    },
                    "indices" : 7,
                    "material" : 0
                }
            ]
        },
        {
            "name" : "Cube.039",
            "primitives" : [
                {
                    "attributes" : {
                        "POSITION" : 8,
                        "NORMAL" : 9,
                        "TEXCOORD_0" : 10
                    },
                    "indices" : 11,
                    "material" : 1
                }
            ]
        }
    ],
    "accessors" : [
        {
            "bufferView" : 0,
            "componentType" : 5126,
            "count" : 448,
            "max" : [
                1,
                1,
                1
            ],
            "min" : [
                -1,
                -24.310606002807617,
                -1.0000009536743164
            ],
            "type" : "VEC3"
        },
        {
            "bufferView" : 1,
            "componentType" : 5126,
            "count" : 448,
            "type" : "VEC3"
        },
        {
            "bufferView" : 2,
            "componentType" : 5126,
            "count" : 448,
            "type" : "VEC2"
        },
        {
            "bufferView" : 3,
            "componentType" : 5123,
            "count" : 744,
            "type" : "SCALAR"
        },
        {
            "bufferView" : 4,
            "componentType" : 5126,
            "count" : 952,
            "max" : [
                1.0000001192092896,
                1.0000001192092896,
                1.0000004768371582
            ],
            "min" : [
                -1,
                -1.0000001192092896,
                -1.0000009536743164
            ],
            "type" : "VEC3"
        },
        {
            "bufferView" : 5,
            "componentType" : 5126,
            "count" : 952,
            "type" : "VEC3"
        },
        {
            "bufferView" : 6,
            "componentType" : 5126,
            "count" : 952,
            "type" : "VEC2"
        },
        {
            "bufferView" : 7,
            "componentType" : 5123,
            "count" : 1620,
            "type" : "SCALAR"
        },
        {
            "bufferView" : 8,
            "componentType" : 5126,
            "count" : 24,
            "max" : [
                1,
                1,
                1
            ],
            "min" : [
                -1,
                -1,
                -1
            ],
            "type" : "VEC3"
        },
        {
            "bufferView" : 9,
            "componentType" : 5126,
            "count" : 24,
            "type" : "VEC3"
        },
        {
            "bufferView" : 10,
            "componentType" : 5126,
            "count" : 24,
            "type" : "VEC2"
        },
        {
            "bufferView" : 11,
            "componentType" : 5123,
            "count" : 36,
            "type" : "SCALAR"
        }
    ],
    "bufferViews" : [
        {
            "buffer" : 0,
            "byteLength" : 5376,
            "byteOffset" : 0
        },
        {
            "buffer" : 0,
            "byteLength" : 5376,
            "byteOffset" : 5376
        },
        {
            "buffer" : 0,
            "byteLength" : 3584,
            "byteOffset" : 10752
        },
        {
            "buffer" : 0,
            "byteLength" : 1488,
            "byteOffset" : 14336
        },
        {
            "buffer" : 0,
            "byteLength" : 11424,
            "byteOffset" : 15824
        },
        {
            "buffer" : 0,
            "byteLength" : 11424,
            "byteOffset" : 27248
        },
        {
            "buffer" : 0,
            "byteLength" : 7616,
            "byteOffset" : 38672
        },
        {
            "buffer" : 0,
            "byteLength" : 3240,
            "byteOffset" : 46288
        },
        {
            "buffer" : 0,
            "byteLength" : 288,
            "byteOffset" : 49528
        },
        {
            "buffer" : 0,
            "byteLength" : 288,
            "byteOffset" : 49816
        },
        {
            "buffer" : 0,
            "byteLength" : 192,
            "byteOffset" : 50104
        },
        {
            "buffer" : 0,
            "byteLength" : 72,
            "byteOffset" : 50296
        }
    ],
    "buffers" : [
        {
            "byteLength" : 50368,
            "uri" : "data:application/octet-stream;base64,"
        }
    ]
}
