{
    "asset" : {
        "generator" : "Khronos glTF Blender I/O v0.9.36",
        "version" : "2.0"
    },
    "scene" : 0,
    "scenes" : [
        {
            "name" : "Scene",
            "nodes" : [
                0,
                1,
                2
            ]
        }
    ],
    "nodes" : [
        {
            "mesh" : 0,
            "name" : "Cube.021",
            "scale" : [
                0.8250856399536133,
                0.8250856399536133,
                0.01662304624915123
            ]
        },
        {
            "mesh" : 1,
            "name" : "Cube.026",
            "scale" : [
                1,
                1,
                0.10000000149011612
            ]
        },
        {
            "mesh" : 2,
            "name" : "BM_collider",
            "scale" : [
                1,
                1,
                0.18977417051792145
            ]
        }
    ],
    "materials" : [
        {
            "alphaMode" : "BLEND",
            "doubleSided" : true,
            "name" : "Material",
            "pbrMetallicRoughness" : {
                "baseColorFactor" : [
                    0.49321094155311584,
                    0.4618690609931946,
                    0.43352630734443665,
                    0.31735795736312866
                ],
                "metallicFactor" : 0.45454540848731995,
                "roughnessFactor" : 0.05194804444909096
            }
        },
        {
            "doubleSided" : true,
            "name" : "Material.018",
            "pbrMetallicRoughness" : {
                "baseColorFactor" : [
                    0.8631572127342224,
                    0.057805441319942474,
                    0.05612849444150925,
                    1
                ],
                "metallicFactor" : 0,
                "roughnessFactor" : 0.7940260171890259
            }
        }
    ],
    "meshes" : [
        {
            "name" : "Cube.022",
            "primitives" : [
                {
                    "attributes" : {
                        "POSITION" : 0,
                        "NORMAL" : 1,
                        "TEXCOORD_0" : 2
                    },
                    "indices" : 3,
                    "material" : 0
                }
            ]
        },
        {
            "name" : "Cube.021",
            "primitives" : [
                {
                    "attributes" : {
                        "POSITION" : 4,
                        "NORMAL" : 5,
                        "TEXCOORD_0" : 6
                    },
                    "indices" : 7,
                    "material" : 1
                }
            ]
        },
        {
            "name" : "Cube.034",
            "primitives" : [
                {
                    "attributes" : {
                        "POSITION" : 8,
                        "NORMAL" : 9,
                        "TEXCOORD_0" : 10
                    },
                    "indices" : 3
                }
            ]
        }
    ],
    "accessors" : [
        {
            "bufferView" : 0,
            "componentType" : 5126,
            "count" : 24,
            "max" : [
                1,
                1,
                1
            ],
            "min" : [
                -1,
                -1,
                -1
            ],
            "type" : "VEC3"
        },
        {
            "bufferView" : 1,
            "componentType" : 5126,
            "count" : 24,
            "type" : "VEC3"
        },
        {
            "bufferView" : 2,
            "componentType" : 5126,
            "count" : 24,
            "type" : "VEC2"
        },
        {
            "bufferView" : 3,
            "componentType" : 5123,
            "count" : 36,
            "type" : "SCALAR"
        },
        {
            "bufferView" : 4,
            "componentType" : 5126,
            "count" : 2678,
            "max" : [
                1.0000001192092896,
                1.0000001192092896,
                1.0000004768371582
            ],
            "min" : [
                -1.0000001192092896,
                -1.0000001192092896,
                -1.0000009536743164
            ],
            "type" : "VEC3"
        },
        {
            "bufferView" : 5,
            "componentType" : 5126,
            "count" : 2678,
            "type" : "VEC3"
        },
        {
            "bufferView" : 6,
            "componentType" : 5126,
            "count" : 2678,
            "type" : "VEC2"
        },
        {
            "bufferView" : 7,
            "componentType" : 5123,
            "count" : 4140,
            "type" : "SCALAR"
        },
        {
            "bufferView" : 8,
            "componentType" : 5126,
            "count" : 24,
            "max" : [
                1,
                1,
                1
            ],
            "min" : [
                -1,
                -1,
                -1
            ],
            "type" : "VEC3"
        },
        {
            "bufferView" : 9,
            "componentType" : 5126,
            "count" : 24,
            "type" : "VEC3"
        },
        {
            "bufferView" : 10,
            "componentType" : 5126,
            "count" : 24,
            "type" : "VEC2"
        }
    ],
    "bufferViews" : [
        {
            "buffer" : 0,
            "byteLength" : 288,
            "byteOffset" : 0
        },
        {
            "buffer" : 0,
            "byteLength" : 288,
            "byteOffset" : 288
        },
        {
            "buffer" : 0,
            "byteLength" : 192,
            "byteOffset" : 576
        },
        {
            "buffer" : 0,
            "byteLength" : 72,
            "byteOffset" : 768
        },
        {
            "buffer" : 0,
            "byteLength" : 32136,
            "byteOffset" : 840
        },
        {
            "buffer" : 0,
            "byteLength" : 32136,
            "byteOffset" : 32976
        },
        {
            "buffer" : 0,
            "byteLength" : 21424,
            "byteOffset" : 65112
        },
        {
            "buffer" : 0,
            "byteLength" : 8280,
            "byteOffset" : 86536
        },
        {
            "buffer" : 0,
            "byteLength" : 288,
            "byteOffset" : 94816
        },
        {
            "buffer" : 0,
            "byteLength" : 288,
            "byteOffset" : 95104
        },
        {
            "buffer" : 0,
            "byteLength" : 192,
            "byteOffset" : 95392
        }
    ],
    "buffers" : [
        {
            "byteLength" : 95584,
            "uri" : "data:application/octet-stream;base64,"
        }
    ]
}
