{
    "asset" : {
        "generator" : "Khronos glTF Blender I/O v0.9.36",
        "version" : "2.0"
    },
    "scene" : 0,
    "scenes" : [
        {
            "name" : "Scene",
            "nodes" : [
                0,
                1,
                2,
                3,
                4,
                5,
                6,
                7,
                8
            ]
        }
    ],
    "nodes" : [
        {
            "mesh" : 0,
            "name" : "floor",
            "rotation" : [
                0,
                -0.7071067690849304,
                0,
                0.7071067690849304
            ]
        },
        {
            "mesh" : 1,
            "name" : "Cube.034",
            "rotation" : [
                0,
                -0.6991209983825684,
                0,
                0.7150033712387085
            ],
            "translation" : [
                0,
                0.20000000298023224,
                0
            ]
        },
        {
            "mesh" : 2,
            "name" : "Cube.035",
            "rotation" : [
                0,
                -0.6991209983825684,
                0,
                0.7150033712387085
            ],
            "translation" : [
                0,
                0.20000000298023224,
                0
            ]
        },
        {
            "mesh" : 3,
            "name" : "door",
            "rotation" : [
                0,
                -0.7071067690849304,
                0,
                0.7071067690849304
            ],
            "translation" : [
                0,
                0.20000000298023224,
                0
            ]
        },
        {
            "mesh" : 4,
            "name" : "Cube.031",
            "rotation" : [
                0,
                -0.6991209983825684,
                0,
                0.7150033712387085
            ],
            "translation" : [
                0,
                0.20000000298023224,
                0
            ]
        },
        {
            "mesh" : 5,
            "name" : "Cube.023",
            "rotation" : [
                0,
                -0.6991209983825684,
                0,
                0.7150033712387085
            ],
            "translation" : [
                0,
                4,
                0
            ]
        },
        {
            "mesh" : 6,
            "name" : "Cube.025",
            "rotation" : [
                0,
                -0.6991209983825684,
                0,
                0.7150033712387085
            ],
            "translation" : [
                0,
                4,
                0
            ]
        },
        {
            "mesh" : 7,
            "name" : "Cube.026",
            "rotation" : [
                0,
                -0.6991209983825684,
                0,
                0.7150033712387085
            ],
            "translation" : [
                0,
                4,
                0
            ]
        },
        {
            "mesh" : 8,
            "name" : "door.001",
            "rotation" : [
                0,
                -0.7071067690849304,
                0,
                0.7071067690849304
            ],
            "translation" : [
                0,
                4,
                0
            ]
        }
    ],
    "materials" : [
        {
            "doubleSided" : true,
            "name" : "Material.017",
            "pbrMetallicRoughness" : {
                "baseColorFactor" : [
                    0.007376573979854584,
                    0.007514928467571735,
                    0.007712529040873051,
                    1
                ],
                "metallicFactor" : 0,
                "roughnessFactor" : 1
            }
        },
        {
            "doubleSided" : true,
            "name" : "Material.027",
            "pbrMetallicRoughness" : {
                "baseColorFactor" : [
                    0,
                    0.11249690502882004,
                    0.8000000715255737,
                    1
                ],
                "metallicFactor" : 0,
                "roughnessFactor" : 0.5
            }
        },
        {
            "doubleSided" : true,
            "name" : "Material.025",
            "pbrMetallicRoughness" : {
                "baseColorFactor" : [
                    0.011799200437963009,
                    0.8631572127342224,
                    0.16224394738674164,
                    1
                ],
                "metallicFactor" : 0,
                "roughnessFactor" : 0.7940260171890259
            }
        },
        {
            "doubleSided" : true,
            "name" : "Material.028",
            "pbrMetallicRoughness" : {
                "baseColorFactor" : [
                    0.8631572127342224,
                    0.057805441319942474,
                    0.05612849444150925,
                    1
                ],
                "metallicFactor" : 0,
                "roughnessFactor" : 0.7940260171890259
            }
        },
        {
            "doubleSided" : true,
            "name" : "Material.030",
            "pbrMetallicRoughness" : {
                "baseColorFactor" : [
                    0.8631572127342224,
                    0.8399166464805603,
                    0.6953132152557373,
                    1
                ],
                "metallicFactor" : 0.649350643157959,
                "roughnessFactor" : 0.5103896260261536
            }
        }
    ],
    "meshes" : [
        {
            "name" : "Plane.005",
            "primitives" : [
                {
                    "attributes" : {
                        "POSITION" : 0,
                        "NORMAL" : 1,
                        "TEXCOORD_0" : 2
                    },
                    "indices" : 3,
                    "material" : 0
                }
            ]
        },
        {
            "name" : "Cube.040",
            "primitives" : [
                {
                    "attributes" : {
                        "POSITION" : 4,
                        "NORMAL" : 5,
                        "TEXCOORD_0" : 6
                    },
                    "indices" : 7,
                    "material" : 1
                }
            ]
        },
        {
            "name" : "Cube.036",
            "primitives" : [
                {
                    "attributes" : {
                        "POSITION" : 8,
                        "NORMAL" : 9,
                        "TEXCOORD_0" : 10
                    },
                    "indices" : 11,
                    "material" : 2
                }
            ]
        },
        {
            "name" : "Cube.029",
            "primitives" : [
                {
                    "attributes" : {
                        "POSITION" : 12,
                        "NORMAL" : 13,
                        "TEXCOORD_0" : 14
                    },
                    "indices" : 15,
                    "material" : 3
                }
            ]
        },
        {
            "name" : "Cube.031",
            "primitives" : [
                {
                    "attributes" : {
                        "POSITION" : 16,
                        "NORMAL" : 17,
                        "TEXCOORD_0" : 18
                    },
                    "indices" : 19,
                    "material" : 4
                }
            ]
        },
        {
            "name" : "Cube.032",
            "primitives" : [
                {
                    "attributes" : {
                        "POSITION" : 20,
                        "NORMAL" : 21,
                        "TEXCOORD_0" : 22
                    },
                    "indices" : 7,
                    "material" : 1
                }
            ]
        },
        {
            "name" : "Cube.033",
            "primitives" : [
                {
                    "attributes" : {
                        "POSITION" : 23,
                        "NORMAL" : 24,
                        "TEXCOORD_0" : 25
                    },
                    "indices" : 19,
                    "material" : 4
                }
            ]
        },
        {
            "name" : "Cube.034",
            "primitives" : [
                {
                    "attributes" : {
                        "POSITION" : 26,
                        "NORMAL" : 27,
                        "TEXCOORD_0" : 28
                    },
                    "indices" : 11,
                    "material" : 2
                }
            ]
        },
        {
            "name" : "Cube.035",
            "primitives" : [
                {
                    "attributes" : {
                        "POSITION" : 29,
                        "NORMAL" : 30,
                        "TEXCOORD_0" : 31
                    },
                    "indices" : 15,
                    "material" : 3
                }
            ]
        }
    ],
    "accessors" : [
        {
            "bufferView" : 0,
            "componentType" : 5126,
            "count" : 4,
            "max" : [
                8.000375747680664,
                -0.002514171414077282,
                15.99947738647461
            ],
            "min" : [
                -7.999624252319336,
                -0.002517354441806674,
                -16.00052261352539
            ],
            "type" : "VEC3"
        },
        {
            "bufferView" : 1,
            "componentType" : 5126,
            "count" : 4,
            "type" : "VEC3"
        },
        {
            "bufferView" : 2,
            "componentType" : 5126,
            "count" : 4,
            "type" : "VEC2"
        },
        {
            "bufferView" : 3,
            "componentType" : 5123,
            "count" : 6,
            "type" : "SCALAR"
        },
        {
            "bufferView" : 4,
            "componentType" : 5126,
            "count" : 2698,
            "max" : [
                5,
                0.10000013560056686,
                9
            ],
            "min" : [
                3,
                -0.10000008344650269,
                7
            ],
            "type" : "VEC3"
        },
        {
            "bufferView" : 5,
            "componentType" : 5126,
            "count" : 2698,
            "type" : "VEC3"
        },
        {
            "bufferView" : 6,
            "componentType" : 5126,
            "count" : 2698,
            "type" : "VEC2"
        },
        {
            "bufferView" : 7,
            "componentType" : 5123,
            "count" : 4134,
            "type" : "SCALAR"
        },
        {
            "bufferView" : 8,
            "componentType" : 5126,
            "count" : 2698,
            "max" : [
                5,
                0.10000013560056686,
                -7
            ],
            "min" : [
                3,
                -0.10000008344650269,
                -9
            ],
            "type" : "VEC3"
        },
        {
            "bufferView" : 9,
            "componentType" : 5126,
            "count" : 2698,
            "type" : "VEC3"
        },
        {
            "bufferView" : 10,
            "componentType" : 5126,
            "count" : 2698,
            "type" : "VEC2"
        },
        {
            "bufferView" : 11,
            "componentType" : 5123,
            "count" : 4134,
            "type" : "SCALAR"
        },
        {
            "bufferView" : 12,
            "componentType" : 5126,
            "count" : 2698,
            "max" : [
                -3,
                0.10000013560056686,
                -7
            ],
            "min" : [
                -5,
                -0.10000008344650269,
                -9
            ],
            "type" : "VEC3"
        },
        {
            "bufferView" : 13,
            "componentType" : 5126,
            "count" : 2698,
            "type" : "VEC3"
        },
        {
            "bufferView" : 14,
            "componentType" : 5126,
            "count" : 2698,
            "type" : "VEC2"
        },
        {
            "bufferView" : 15,
            "componentType" : 5123,
            "count" : 4134,
            "type" : "SCALAR"
        },
        {
            "bufferView" : 16,
            "componentType" : 5126,
            "count" : 880,
            "max" : [
                -3,
                0.10000014305114746,
                9
            ],
            "min" : [
                -5,
                -0.10000009089708328,
                7
            ],
            "type" : "VEC3"
        },
        {
            "bufferView" : 17,
            "componentType" : 5126,
            "count" : 880,
            "type" : "VEC3"
        },
        {
            "bufferView" : 18,
            "componentType" : 5126,
            "count" : 880,
            "type" : "VEC2"
        },
        {
            "bufferView" : 19,
            "componentType" : 5123,
            "count" : 1476,
            "type" : "SCALAR"
        },
        {
            "bufferView" : 20,
            "componentType" : 5126,
            "count" : 2698,
            "max" : [
                5,
                0.10000013560056686,
                9
            ],
            "min" : [
                3,
                -0.10000008344650269,
                7
            ],
            "type" : "VEC3"
        },
        {
            "bufferView" : 21,
            "componentType" : 5126,
            "count" : 2698,
            "type" : "VEC3"
        },
        {
            "bufferView" : 22,
            "componentType" : 5126,
            "count" : 2698,
            "type" : "VEC2"
        },
        {
            "bufferView" : 23,
            "componentType" : 5126,
            "count" : 880,
            "max" : [
                -3,
                0.10000014305114746,
                9
            ],
            "min" : [
                -5,
                -0.10000009089708328,
                7
            ],
            "type" : "VEC3"
        },
        {
            "bufferView" : 24,
            "componentType" : 5126,
            "count" : 880,
            "type" : "VEC3"
        },
        {
            "bufferView" : 25,
            "componentType" : 5126,
            "count" : 880,
            "type" : "VEC2"
        },
        {
            "bufferView" : 26,
            "componentType" : 5126,
            "count" : 2698,
            "max" : [
                5,
                0.10000013560056686,
                -7
            ],
            "min" : [
                3,
                -0.10000008344650269,
                -9
            ],
            "type" : "VEC3"
        },
        {
            "bufferView" : 27,
            "componentType" : 5126,
            "count" : 2698,
            "type" : "VEC3"
        },
        {
            "bufferView" : 28,
            "componentType" : 5126,
            "count" : 2698,
            "type" : "VEC2"
        },
        {
            "bufferView" : 29,
            "componentType" : 5126,
            "count" : 2698,
            "max" : [
                -3,
                0.10000013560056686,
                -7
            ],
            "min" : [
                -5,
                -0.10000008344650269,
                -9
            ],
            "type" : "VEC3"
        },
        {
            "bufferView" : 30,
            "componentType" : 5126,
            "count" : 2698,
            "type" : "VEC3"
        },
        {
            "bufferView" : 31,
            "componentType" : 5126,
            "count" : 2698,
            "type" : "VEC2"
        }
    ],
    "bufferViews" : [
        {
            "buffer" : 0,
            "byteLength" : 48,
            "byteOffset" : 0
        },
        {
            "buffer" : 0,
            "byteLength" : 48,
            "byteOffset" : 48
        },
        {
            "buffer" : 0,
            "byteLength" : 32,
            "byteOffset" : 96
        },
        {
            "buffer" : 0,
            "byteLength" : 12,
            "byteOffset" : 128
        },
        {
            "buffer" : 0,
            "byteLength" : 32376,
            "byteOffset" : 140
        },
        {
            "buffer" : 0,
            "byteLength" : 32376,
            "byteOffset" : 32516
        },
        {
            "buffer" : 0,
            "byteLength" : 21584,
            "byteOffset" : 64892
        },
        {
            "buffer" : 0,
            "byteLength" : 8268,
            "byteOffset" : 86476
        },
        {
            "buffer" : 0,
            "byteLength" : 32376,
            "byteOffset" : 94744
        },
        {
            "buffer" : 0,
            "byteLength" : 32376,
            "byteOffset" : 127120
        },
        {
            "buffer" : 0,
            "byteLength" : 21584,
            "byteOffset" : 159496
        },
        {
            "buffer" : 0,
            "byteLength" : 8268,
            "byteOffset" : 181080
        },
        {
            "buffer" : 0,
            "byteLength" : 32376,
            "byteOffset" : 189348
        },
        {
            "buffer" : 0,
            "byteLength" : 32376,
            "byteOffset" : 221724
        },
        {
            "buffer" : 0,
            "byteLength" : 21584,
            "byteOffset" : 254100
        },
        {
            "buffer" : 0,
            "byteLength" : 8268,
            "byteOffset" : 275684
        },
        {
            "buffer" : 0,
            "byteLength" : 10560,
            "byteOffset" : 283952
        },
        {
            "buffer" : 0,
            "byteLength" : 10560,
            "byteOffset" : 294512
        },
        {
            "buffer" : 0,
            "byteLength" : 7040,
            "byteOffset" : 305072
        },
        {
            "buffer" : 0,
            "byteLength" : 2952,
            "byteOffset" : 312112
        },
        {
            "buffer" : 0,
            "byteLength" : 32376,
            "byteOffset" : 315064
        },
        {
            "buffer" : 0,
            "byteLength" : 32376,
            "byteOffset" : 347440
        },
        {
            "buffer" : 0,
            "byteLength" : 21584,
            "byteOffset" : 379816
        },
        {
            "buffer" : 0,
            "byteLength" : 10560,
            "byteOffset" : 401400
        },
        {
            "buffer" : 0,
            "byteLength" : 10560,
            "byteOffset" : 411960
        },
        {
            "buffer" : 0,
            "byteLength" : 7040,
            "byteOffset" : 422520
        },
        {
            "buffer" : 0,
            "byteLength" : 32376,
            "byteOffset" : 429560
        },
        {
            "buffer" : 0,
            "byteLength" : 32376,
            "byteOffset" : 461936
        },
        {
            "buffer" : 0,
            "byteLength" : 21584,
            "byteOffset" : 494312
        },
        {
            "buffer" : 0,
            "byteLength" : 32376,
            "byteOffset" : 515896
        },
        {
            "buffer" : 0,
            "byteLength" : 32376,
            "byteOffset" : 548272
        },
        {
            "buffer" : 0,
            "byteLength" : 21584,
            "byteOffset" : 580648
        }
    ],
    "buffers" : [
        {
            "byteLength" : 602232,
            "uri" : "data:application/octet-stream;base64,"
        }
    ]
}
